<mxfile host="app.diagrams.net" agent="Mozilla/5.0 (Windows NT 10.0; Win64; x64) AppleWebKit/537.36 (KHTML, like Gecko) Chrome/127.0.0.0 Safari/537.36" version="24.7.7">
  <diagram name="Page-1" id="ZqhbWgg_xnVhyIIO_EeD">
    <mxGraphModel dx="1900" dy="583" grid="1" gridSize="10" guides="1" tooltips="1" connect="1" arrows="1" fold="1" page="1" pageScale="1" pageWidth="850" pageHeight="1100" math="0" shadow="0">
      <root>
        <mxCell id="0" />
        <mxCell id="1" parent="0" />
        <mxCell id="i2wMylJpqs6lw6jCaqXf-11" value="&lt;b&gt;App Server&lt;/b&gt;" style="rounded=0;whiteSpace=wrap;html=1;fillColor=#d5e8d4;gradientColor=#97d077;strokeColor=#82b366;" vertex="1" parent="1">
          <mxGeometry x="370" y="120" width="140" height="110" as="geometry" />
        </mxCell>
        <mxCell id="i2wMylJpqs6lw6jCaqXf-12" style="edgeStyle=orthogonalEdgeStyle;rounded=0;orthogonalLoop=1;jettySize=auto;html=1;entryX=0;entryY=0.5;entryDx=0;entryDy=0;entryPerimeter=0;flowAnimation=1;" edge="1" parent="1" source="i2wMylJpqs6lw6jCaqXf-11">
          <mxGeometry relative="1" as="geometry">
            <mxPoint x="570" y="175" as="targetPoint" />
          </mxGeometry>
        </mxCell>
        <mxCell id="i2wMylJpqs6lw6jCaqXf-13" style="edgeStyle=orthogonalEdgeStyle;rounded=0;orthogonalLoop=1;jettySize=auto;html=1;entryX=0;entryY=0.5;entryDx=0;entryDy=0;flowAnimation=1;" edge="1" parent="1" source="i2wMylJpqs6lw6jCaqXf-14" target="i2wMylJpqs6lw6jCaqXf-11">
          <mxGeometry relative="1" as="geometry" />
        </mxCell>
        <mxCell id="i2wMylJpqs6lw6jCaqXf-14" value="&lt;b&gt;Web Server&lt;/b&gt;" style="rounded=1;whiteSpace=wrap;html=1;fillColor=#e6d0de;gradientColor=#d5739d;strokeColor=#996185;" vertex="1" parent="1">
          <mxGeometry x="160" y="120" width="140" height="110" as="geometry" />
        </mxCell>
        <mxCell id="i2wMylJpqs6lw6jCaqXf-15" style="edgeStyle=orthogonalEdgeStyle;rounded=0;orthogonalLoop=1;jettySize=auto;html=1;entryX=0;entryY=0.5;entryDx=0;entryDy=0;flowAnimation=1;" edge="1" parent="1" source="i2wMylJpqs6lw6jCaqXf-16" target="i2wMylJpqs6lw6jCaqXf-14">
          <mxGeometry relative="1" as="geometry" />
        </mxCell>
        <mxCell id="i2wMylJpqs6lw6jCaqXf-16" value="&lt;b&gt;Load Balancer&lt;/b&gt;" style="ellipse;whiteSpace=wrap;html=1;aspect=fixed;fillColor=#fff2cc;gradientColor=#ffd966;strokeColor=#d6b656;" vertex="1" parent="1">
          <mxGeometry x="-20" y="120" width="110" height="110" as="geometry" />
        </mxCell>
        <mxCell id="i2wMylJpqs6lw6jCaqXf-17" style="edgeStyle=orthogonalEdgeStyle;rounded=0;orthogonalLoop=1;jettySize=auto;html=1;entryX=0;entryY=0.5;entryDx=0;entryDy=0;flowAnimation=1;" edge="1" parent="1" source="i2wMylJpqs6lw6jCaqXf-18" target="i2wMylJpqs6lw6jCaqXf-16">
          <mxGeometry relative="1" as="geometry" />
        </mxCell>
        <mxCell id="i2wMylJpqs6lw6jCaqXf-18" value="" style="html=1;verticalLabelPosition=bottom;align=center;labelBackgroundColor=#ffffff;verticalAlign=top;strokeWidth=2;strokeColor=#0080F0;shadow=0;dashed=0;shape=mxgraph.ios7.icons.user;" vertex="1" parent="1">
          <mxGeometry x="-200" y="125" width="120" height="100" as="geometry" />
        </mxCell>
        <mxCell id="i2wMylJpqs6lw6jCaqXf-23" value="&lt;b&gt;DB Server&lt;/b&gt;" style="shape=cylinder3;whiteSpace=wrap;html=1;boundedLbl=1;backgroundOutline=1;size=15;fillColor=#dae8fc;strokeColor=#6c8ebf;gradientColor=#7ea6e0;" vertex="1" parent="1">
          <mxGeometry x="570" y="115" width="120" height="120" as="geometry" />
        </mxCell>
      </root>
    </mxGraphModel>
  </diagram>
</mxfile>